<svg xmlns="http://www.w3.org/2000/svg" xmlns:xlink="http://www.w3.org/1999/xlink" width="48px" height="48px" viewBox="0 0 48 48" version="1.1" class="injected-svg Icon--xsmall v-middle" data-src="https://dashboard-cdn.rebrandly.com/styleguide-assets/icons/ic-social-instagram.svg" fill="undefined">
    <!-- Generator: Sketch 53.2 (72643) - https://sketchapp.com -->
    <title>instagram</title>
    <desc>Created with Sketch.</desc>
    <defs>
        <linearGradient x1="50%" y1="99.7089109%" x2="50%" y2="0.776721582%" id="linearGradient-1-1">
            <stop stop-color="#E09B3D" offset="0%"></stop>
            <stop stop-color="#C74C4D" offset="30%"></stop>
            <stop stop-color="#C21975" offset="60%"></stop>
            <stop stop-color="#7024C4" offset="100%"></stop>
        </linearGradient>
        <linearGradient x1="50%" y1="146.098873%" x2="50%" y2="-45.1596833%" id="linearGradient-2-2">
            <stop stop-color="#E09B3D" offset="0%"></stop>
            <stop stop-color="#C74C4D" offset="30%"></stop>
            <stop stop-color="#C21975" offset="60%"></stop>
            <stop stop-color="#7024C4" offset="100%"></stop>
        </linearGradient>
        <linearGradient x1="50%" y1="658.140556%" x2="50%" y2="-140.029283%" id="linearGradient-3-3">
            <stop stop-color="#E09B3D" offset="0%"></stop>
            <stop stop-color="#C74C4D" offset="30%"></stop>
            <stop stop-color="#C21975" offset="60%"></stop>
            <stop stop-color="#7024C4" offset="100%"></stop>
        </linearGradient>
    </defs>
    <g id="Page-1" stroke="none" stroke-width="1" fill="none" fill-rule="evenodd">
        <g id="instagram" fill-rule="nonzero">
            <path d="M33.6415652,0 L14.2744348,0 C6.40347826,0 0,6.40347826 0,14.2744348 L0,33.6415652 C0,41.5125217 6.40347826,47.916 14.2744348,47.916 L33.6415652,47.916 C41.5125217,47.916 47.916,41.5125217 47.916,33.6415652 L47.916,14.2744348 C47.915913,6.40347826 41.5124348,0 33.6415652,0 Z M43.0956522,33.6415652 C43.0956522,38.8628696 38.8628696,43.0956522 33.6415652,43.0956522 L14.2744348,43.0956522 C9.05313043,43.0956522 4.82034783,38.8628696 4.82034783,33.6415652 L4.82034783,14.2744348 C4.82034783,9.05304348 9.05313043,4.82034783 14.2744348,4.82034783 L33.6415652,4.82034783 C38.8628696,4.82034783 43.0956522,9.05304348 43.0956522,14.2744348 L43.0956522,33.6415652 L43.0956522,33.6415652 Z" id="Shape-4" fill="url(#linearGradient-1-1)"></path>
            <path d="M23.958,11.5652174 C17.1246087,11.5652174 11.5652174,17.1246087 11.5652174,23.957913 C11.5652174,30.7912174 17.1246087,36.3506957 23.958,36.3506957 C30.7913913,36.3506957 36.3507826,30.7913043 36.3507826,23.957913 C36.3507826,17.1245217 30.7913913,11.5652174 23.958,11.5652174 Z M23.958,31.5304348 C19.7758261,31.5304348 16.3855652,28.1401739 16.3855652,23.958 C16.3855652,19.7758261 19.775913,16.3855652 23.958,16.3855652 C28.1401739,16.3855652 31.5304348,19.7758261 31.5304348,23.958 C31.5304348,28.140087 28.140087,31.5304348 23.958,31.5304348 Z" id="Shape-5" fill="url(#linearGradient-2-2)"></path>
            <circle id="Oval" fill="url(#linearGradient-3-3)" cx="36.3747826" cy="11.6582609" r="2.96956522"></circle>
        </g>
    </g>
</svg>