<svg xmlns="http://www.w3.org/2000/svg" width="48" height="48" viewBox="0 0 48 48" class="injected-svg Icon--xsmall v-middle" data-src="https://dashboard-cdn.rebrandly.com/styleguide-assets/icons/ic-social-linkedin.svg" xmlns:xlink="http://www.w3.org/1999/xlink" fill="undefined"><g><g fill="#0077B5"><path d="M3.54 0C1.6 0 0 1.55 0 3.46v41.08C0 46.44 1.6 48 3.54 48h40.9c1.97 0 3.56-1.55 3.56-3.46V3.46C48 1.56 46.4 0 44.45 0H3.55zM15 11c0 2.2-1.8 4-4 4s-4-1.8-4-4 1.8-4 4-4 4 1.8 4 4zM7 41V18h7v23H7zm18.77-23.44v3.06h.1C26.8 18.86 29.1 17 32.53 17 39.68 17 41 21.65 41 27.7V40h-7.05V29.1c0-2.62-.05-5.96-3.67-5.96-3.67 0-4.23 2.83-4.23 5.76V40H19V17.56h6.77z"></path></g></g></svg>