<svg xmlns="http://www.w3.org/2000/svg" width="24" height="24" viewBox="0 0 24 24" fill="undefined" class="injected-svg Icon--xsmall v-middle" data-src="https://dashboard-cdn.rebrandly.com/styleguide-assets/icons/ic-social-twitter.svg" xmlns:xlink="http://www.w3.org/1999/xlink">
    <path fill-rule="evenodd" clip-rule="evenodd" d="M4 0C1.79086 0 0 1.79086 0 4V20C0 22.2091 1.79086 24 4 24H20C22.2091 24 24 22.2091 24 20V4C24 1.79086 22.2091 0 20 0H4ZM18.6131 5.5H16.3131L12.5231 9.81455L9.24625 5.50062H4.5L10.1713 12.8826L4.79625 19H7.0975L11.2463 14.2803L14.8713 19H19.5L13.5881 11.2191L18.6131 5.5ZM16.7806 17.6296H15.5063L7.18625 6.79878H8.55375L16.7806 17.6296Z" fill="#000"></path>
</svg>