<svg xmlns="http://www.w3.org/2000/svg" width="48" height="48" viewBox="0 0 48 48" class="injected-svg Icon--xsmall v-middle" data-src="https://dashboard-cdn.rebrandly.com/styleguide-assets/icons/ic-rebrandly.svg" xmlns:xlink="http://www.w3.org/1999/xlink" fill="undefined"><g fill="none"><g fill="#2C96DF" fill-rule="nonzero"><path d="M24 0C10.74 0 0 10.74 0 24s10.74 24 24 24 24-10.74 24-24S37.25 0 24 0zm1.5 45C14.2 45 5 35.82 5 24.5 5 13.15 14.2 4 25.5 4S46 13.18 46 24.5C46 35.85 36.83 45 25.5 45zm11.15-15.85c-.2-.02-.5.1-.7.4-1.45 1.9-4.1 4.45-5.57 4.45-1.54-.1-1.68-3.6-3.6-6 2.8-.2 4.92-1.15 6.4-2.46 2-1.66 2.98-3.97 2.98-6.2 0-4.83-3.96-8.34-10.02-8.34-9.3 0-14.87 4.18-15.1 5.7-.2 1.23.3 2.15.87 2.76.6.82 1.4 1.2 1.4 1.2s.52-.73.83-1.06c1-1.05 2.27-2.25 3.87-3.3.44-.25 3.5-2.04 6.86-2.6.65-.06 1.44-.14 2.27-.14 1.28.06 2.52.4 3.6 1.13.3.23 1.63 1.4 1.73 3.03 0 .18 0 .35 0 .52 0 1.85-.55 3.67-1.6 5.2-1.2 1.64-2.95 2.92-5.18 3.44-.22-.15-.47-.32-.72-.43.1-.34.23-.67.35-1l1.03-2.72c.6-1.6 1.2-3.17 1.77-4.74.2-.57.4-1.16.6-1.73.3-.96-.68-1.17-1.42-1.23-.1 0-.22 0-.35 0-.85.03-1.9.3-1.9.3-1.47 4.14-2.97 7.55-3.96 10.64-.8.2-1.2.67-1.2 1.15 0 .16.05.32.14.47.08.17.2.34.4.46-.64 2.3-2 6.66-2 7.5 0 .97.92 1.44 1.74 1.44.36 0 1.25-.07 1.25-.07.02-.07.04-.07.04-.07s1.7-4.98 2.62-7.7c1.4 3.25 1.67 6.1 3.52 7 .4.18.87.3 1.43.3 2.47 0 5.28-3.04 6.18-4.06.63-.83 1.17-1.67 1.63-2.4.12-.15.17-.3.2-.44-.03-.26-.18-.38-.35-.4z"></path></g></g></svg>