<svg xmlns="http://www.w3.org/2000/svg" height="48" viewBox="0 0 48 48" width="48" class="injected-svg Icon--xsmall v-middle" data-src="https://dashboard-cdn.rebrandly.com/styleguide-assets/icons/ic-social-youtube.svg" xmlns:xlink="http://www.w3.org/1999/xlink" fill="undefined"><path d="m46.9969091 12.3966555c1.0030909 3.8500955 1.0030909 11.8833445 1.0030909 11.8833445s0 8.0329703-1.0030909 11.8833445c-.552 2.1243252-2.1785455 3.7971407-4.2436364 4.365151-3.7431818 1.0315045-18.7532727 1.0315045-18.7532727 1.0315045s-15.01009091 0-18.75327273-1.0315045c-2.06509091-.5680103-3.69163636-2.2408258-4.24363636-4.365151-1.00309091-3.8503742-1.00309091-11.8833445-1.00309091-11.8833445s0-8.033249 1.00309091-11.8833445c.552-2.1243252 2.17854545-3.79714066 4.24363636-4.36487227 3.74318182-1.03178323 18.75327273-1.03178323 18.75327273-1.03178323s15.0100909 0 18.7532727 1.03178323c2.0650909.56773161 3.6916364 2.24054707 4.2436364 4.36487227zm-27.7969091 19.5633445 13.44-7.6797065-13.44-7.6802935z" fill="#f00" fill-rule="evenodd"></path></svg>